<?xml version="1.0" encoding="UTF-8" standalone="no"?>
<!DOCTYPE svg PUBLIC "-//W3C//DTD SVG 1.1//EN"
 "http://www.w3.org/Graphics/SVG/1.1/DTD/svg11.dtd">
<!-- Generated by graphviz version 3.0.0 (20220226.1711)
 -->
<!-- Title: G Pages: 1 -->
<svg width="282pt" height="841pt"
 viewBox="0.00 0.00 282.28 840.91" xmlns="http://www.w3.org/2000/svg" xmlns:xlink="http://www.w3.org/1999/xlink">
<g id="graph0" class="graph" transform="scale(1 1) rotate(0) translate(4 836.91)">
<title>G</title><style>.edge>path:hover{stroke-width:8}</style>
<polygon fill="white" stroke="transparent" points="-4,4 -4,-836.91 278.28,-836.91 278.28,4 -4,4"/>
<!-- kot___main__ -->
<g id="node1" class="node">
<title>kot___main__</title><style>.edge>path:hover{stroke-width:8}</style>
<ellipse fill="#ac4949" stroke="black" cx="195.82" cy="-18" rx="44.3" ry="18"/>
<text text-anchor="middle" x="195.82" y="-15.5" font-family="Helvetica,sans-Serif" font-size="10.00" fill="#ffffff">kot.__main__</text>
</g>
<!-- kot_common_crawl -->
<g id="node2" class="node">
<title>kot_common_crawl</title><style>.edge>path:hover{stroke-width:8}</style>
<ellipse fill="#9c1b1b" stroke="black" cx="195.82" cy="-585.92" rx="40.11" ry="28.98"/>
<text text-anchor="middle" x="195.82" y="-594.42" font-family="Helvetica,sans-Serif" font-size="10.00" fill="#ffffff">kot.</text>
<text text-anchor="middle" x="195.82" y="-583.42" font-family="Helvetica,sans-Serif" font-size="10.00" fill="#ffffff">common.</text>
<text text-anchor="middle" x="195.82" y="-572.42" font-family="Helvetica,sans-Serif" font-size="10.00" fill="#ffffff">crawl</text>
</g>
<!-- kot_myrecorder_crawl -->
<g id="node4" class="node">
<title>kot_myrecorder_crawl</title><style>.edge>path:hover{stroke-width:8}</style>
<ellipse fill="#b83d3d" stroke="black" cx="85.82" cy="-491.94" rx="48.17" ry="28.98"/>
<text text-anchor="middle" x="85.82" y="-500.44" font-family="Helvetica,sans-Serif" font-size="10.00" fill="#ffffff">kot.</text>
<text text-anchor="middle" x="85.82" y="-489.44" font-family="Helvetica,sans-Serif" font-size="10.00" fill="#ffffff">myrecorder.</text>
<text text-anchor="middle" x="85.82" y="-478.44" font-family="Helvetica,sans-Serif" font-size="10.00" fill="#ffffff">crawl</text>
</g>
<!-- kot_common_crawl&#45;&gt;kot_myrecorder_crawl -->
<g id="edge1" class="edge">
<title>kot_common_crawl&#45;&gt;kot_myrecorder_crawl</title><style>.edge>path:hover{stroke-width:8}</style>
<path fill="none" stroke="black" d="M170.03,-563.36C155.54,-551.24 137.23,-535.93 121.39,-522.69"/>
<polygon fill="#9c1b1b" stroke="black" points="123.29,-519.71 113.37,-515.98 118.8,-525.08 123.29,-519.71"/>
</g>
<!-- kot_scrapekot_crawl -->
<g id="node7" class="node">
<title>kot_scrapekot_crawl</title><style>.edge>path:hover{stroke-width:8}</style>
<ellipse fill="#c43131" stroke="black" cx="195.82" cy="-491.94" rx="43.68" ry="28.98"/>
<text text-anchor="middle" x="195.82" y="-500.44" font-family="Helvetica,sans-Serif" font-size="10.00" fill="#ffffff">kot.</text>
<text text-anchor="middle" x="195.82" y="-489.44" font-family="Helvetica,sans-Serif" font-size="10.00" fill="#ffffff">scrapekot.</text>
<text text-anchor="middle" x="195.82" y="-478.44" font-family="Helvetica,sans-Serif" font-size="10.00" fill="#ffffff">crawl</text>
</g>
<!-- kot_common_crawl&#45;&gt;kot_scrapekot_crawl -->
<g id="edge2" class="edge">
<title>kot_common_crawl&#45;&gt;kot_scrapekot_crawl</title><style>.edge>path:hover{stroke-width:8}</style>
<path fill="none" stroke="black" d="M195.82,-556.82C195.82,-548.79 195.82,-539.88 195.82,-531.34"/>
<polygon fill="#9c1b1b" stroke="black" points="199.32,-531.18 195.82,-521.18 192.32,-531.18 199.32,-531.18"/>
</g>
<!-- kot_service -->
<g id="node10" class="node">
<title>kot_service</title><style>.edge>path:hover{stroke-width:8}</style>
<ellipse fill="#8a2e2e" stroke="black" cx="195.82" cy="-90" rx="38.03" ry="18"/>
<text text-anchor="middle" x="195.82" y="-87.5" font-family="Helvetica,sans-Serif" font-size="10.00" fill="#ffffff">kot.service</text>
</g>
<!-- kot_common_crawl&#45;&gt;kot_service -->
<g id="edge3" class="edge">
<title>kot_common_crawl&#45;&gt;kot_service</title><style>.edge>path:hover{stroke-width:8}</style>
<path fill="none" stroke="black" d="M219.6,-562.42C230.22,-551.01 241.89,-536.32 248.82,-520.93 271.35,-470.91 257.84,-452.91 267.82,-398.96"/>
</g>
<!-- kot_common_notify -->
<g id="node3" class="node">
<title>kot_common_notify</title><style>.edge>path:hover{stroke-width:8}</style>
<ellipse fill="#ce3b3b" stroke="black" cx="89.82" cy="-303.97" rx="40.11" ry="28.98"/>
<text text-anchor="middle" x="89.82" y="-312.47" font-family="Helvetica,sans-Serif" font-size="10.00" fill="#ffffff">kot.</text>
<text text-anchor="middle" x="89.82" y="-301.47" font-family="Helvetica,sans-Serif" font-size="10.00" fill="#ffffff">common.</text>
<text text-anchor="middle" x="89.82" y="-290.47" font-family="Helvetica,sans-Serif" font-size="10.00" fill="#ffffff">notify</text>
</g>
<!-- kot_myrecorder_notify -->
<g id="node5" class="node">
<title>kot_myrecorder_notify</title><style>.edge>path:hover{stroke-width:8}</style>
<ellipse fill="#b83d3d" stroke="black" cx="85.82" cy="-209.99" rx="48.17" ry="28.98"/>
<text text-anchor="middle" x="85.82" y="-218.49" font-family="Helvetica,sans-Serif" font-size="10.00" fill="#ffffff">kot.</text>
<text text-anchor="middle" x="85.82" y="-207.49" font-family="Helvetica,sans-Serif" font-size="10.00" fill="#ffffff">myrecorder.</text>
<text text-anchor="middle" x="85.82" y="-196.49" font-family="Helvetica,sans-Serif" font-size="10.00" fill="#ffffff">notify</text>
</g>
<!-- kot_common_notify&#45;&gt;kot_myrecorder_notify -->
<g id="edge4" class="edge">
<title>kot_common_notify&#45;&gt;kot_myrecorder_notify</title><style>.edge>path:hover{stroke-width:8}</style>
<path fill="none" stroke="black" d="M88.6,-274.88C88.25,-266.84 87.86,-257.94 87.49,-249.39"/>
<polygon fill="#ce3b3b" stroke="black" points="90.98,-249.07 87.05,-239.23 83.98,-249.38 90.98,-249.07"/>
</g>
<!-- kot_scrapekot_notify -->
<g id="node8" class="node">
<title>kot_scrapekot_notify</title><style>.edge>path:hover{stroke-width:8}</style>
<ellipse fill="#b03a3a" stroke="black" cx="195.82" cy="-209.99" rx="43.68" ry="28.98"/>
<text text-anchor="middle" x="195.82" y="-218.49" font-family="Helvetica,sans-Serif" font-size="10.00" fill="#ffffff">kot.</text>
<text text-anchor="middle" x="195.82" y="-207.49" font-family="Helvetica,sans-Serif" font-size="10.00" fill="#ffffff">scrapekot.</text>
<text text-anchor="middle" x="195.82" y="-196.49" font-family="Helvetica,sans-Serif" font-size="10.00" fill="#ffffff">notify</text>
</g>
<!-- kot_common_notify&#45;&gt;kot_scrapekot_notify -->
<g id="edge5" class="edge">
<title>kot_common_notify&#45;&gt;kot_scrapekot_notify</title><style>.edge>path:hover{stroke-width:8}</style>
<path fill="none" stroke="black" d="M114.94,-281.18C129.01,-268.96 146.76,-253.56 162.04,-240.3"/>
<polygon fill="#ce3b3b" stroke="black" points="164.51,-242.79 169.77,-233.59 159.92,-237.5 164.51,-242.79"/>
</g>
<!-- kot_myrecorder_crawl&#45;&gt;kot_service -->
<g id="edge6" class="edge">
<title>kot_myrecorder_crawl&#45;&gt;kot_service</title><style>.edge>path:hover{stroke-width:8}</style>
<path fill="none" stroke="black" d="M68.69,-464.72C33.17,-406.71 -39.75,-265.92 28.82,-181 76.52,-121.92 169.52,-216.23 195.82,-145"/>
<path fill="none" stroke="black" d="M195.82,-144C198.71,-135.97 199.51,-126.79 199.35,-118.36"/>
<polygon fill="#b83d3d" stroke="black" points="202.83,-117.98 198.72,-108.22 195.84,-118.41 202.83,-117.98"/>
</g>
<!-- kot_myrecorder_notify&#45;&gt;kot_service -->
<g id="edge7" class="edge">
<title>kot_myrecorder_notify&#45;&gt;kot_service</title><style>.edge>path:hover{stroke-width:8}</style>
<path fill="none" stroke="black" d="M121.99,-190.87C152.9,-174.94 192.84,-153.06 195.82,-145"/>
</g>
<!-- kot_scrapekot_aggregate -->
<g id="node6" class="node">
<title>kot_scrapekot_aggregate</title><style>.edge>path:hover{stroke-width:8}</style>
<ellipse fill="#c43131" stroke="black" cx="195.82" cy="-303.97" rx="43.68" ry="28.98"/>
<text text-anchor="middle" x="195.82" y="-312.47" font-family="Helvetica,sans-Serif" font-size="10.00" fill="#ffffff">kot.</text>
<text text-anchor="middle" x="195.82" y="-301.47" font-family="Helvetica,sans-Serif" font-size="10.00" fill="#ffffff">scrapekot.</text>
<text text-anchor="middle" x="195.82" y="-290.47" font-family="Helvetica,sans-Serif" font-size="10.00" fill="#ffffff">aggregate</text>
</g>
<!-- kot_scrapekot_aggregate&#45;&gt;kot_scrapekot_notify -->
<g id="edge8" class="edge">
<title>kot_scrapekot_aggregate&#45;&gt;kot_scrapekot_notify</title><style>.edge>path:hover{stroke-width:8}</style>
<path fill="none" stroke="black" d="M195.82,-274.88C195.82,-266.84 195.82,-257.94 195.82,-249.39"/>
<polygon fill="#c43131" stroke="black" points="199.32,-249.23 195.82,-239.23 192.32,-249.23 199.32,-249.23"/>
</g>
<!-- kot_scrapekot_aggregate&#45;&gt;kot_service -->
<g id="edge9" class="edge">
<title>kot_scrapekot_aggregate&#45;&gt;kot_service</title><style>.edge>path:hover{stroke-width:8}</style>
<path fill="none" stroke="black" d="M227.16,-283.27C249.61,-266.37 274.76,-240.19 267.82,-210.99"/>
<path fill="none" stroke="black" d="M267.82,-208.99C264.34,-194.36 259.45,-191.63 248.82,-181 228.69,-160.86 185.95,-171.71 195.82,-145"/>
</g>
<!-- kot_scrapekot_scrape -->
<g id="node9" class="node">
<title>kot_scrapekot_scrape</title><style>.edge>path:hover{stroke-width:8}</style>
<ellipse fill="#c43131" stroke="black" cx="195.82" cy="-397.96" rx="43.68" ry="28.98"/>
<text text-anchor="middle" x="195.82" y="-406.46" font-family="Helvetica,sans-Serif" font-size="10.00" fill="#ffffff">kot.</text>
<text text-anchor="middle" x="195.82" y="-395.46" font-family="Helvetica,sans-Serif" font-size="10.00" fill="#ffffff">scrapekot.</text>
<text text-anchor="middle" x="195.82" y="-384.46" font-family="Helvetica,sans-Serif" font-size="10.00" fill="#ffffff">scrape</text>
</g>
<!-- kot_scrapekot_crawl&#45;&gt;kot_scrapekot_scrape -->
<g id="edge10" class="edge">
<title>kot_scrapekot_crawl&#45;&gt;kot_scrapekot_scrape</title><style>.edge>path:hover{stroke-width:8}</style>
<path fill="none" stroke="black" d="M195.82,-462.84C195.82,-454.8 195.82,-445.9 195.82,-437.36"/>
<polygon fill="#c43131" stroke="black" points="199.32,-437.2 195.82,-427.2 192.32,-437.2 199.32,-437.2"/>
</g>
<!-- kot_scrapekot_crawl&#45;&gt;kot_service -->
<g id="edge11" class="edge">
<title>kot_scrapekot_crawl&#45;&gt;kot_service</title><style>.edge>path:hover{stroke-width:8}</style>
<path fill="none" stroke="black" d="M267.82,-396.96C275.25,-356.76 260.38,-345.17 267.82,-304.97"/>
<path fill="none" stroke="black" d="M223.2,-468.95C241.3,-452.12 262.62,-427.07 267.82,-398.96"/>
</g>
<!-- kot_scrapekot_notify&#45;&gt;kot_service -->
<g id="edge12" class="edge">
<title>kot_scrapekot_notify&#45;&gt;kot_service</title><style>.edge>path:hover{stroke-width:8}</style>
<path fill="none" stroke="black" d="M191.65,-180.84C191.01,-169.4 191.66,-156.26 195.82,-145"/>
</g>
<!-- kot_scrapekot_scrape&#45;&gt;kot_scrapekot_aggregate -->
<g id="edge13" class="edge">
<title>kot_scrapekot_scrape&#45;&gt;kot_scrapekot_aggregate</title><style>.edge>path:hover{stroke-width:8}</style>
<path fill="none" stroke="black" d="M195.82,-368.86C195.82,-360.82 195.82,-351.92 195.82,-343.38"/>
<polygon fill="#c43131" stroke="black" points="199.32,-343.22 195.82,-333.22 192.32,-343.22 199.32,-343.22"/>
</g>
<!-- kot_scrapekot_scrape&#45;&gt;kot_service -->
<g id="edge14" class="edge">
<title>kot_scrapekot_scrape&#45;&gt;kot_service</title><style>.edge>path:hover{stroke-width:8}</style>
<path fill="none" stroke="black" d="M223.2,-374.97C241.3,-358.14 262.62,-333.09 267.82,-304.97"/>
<path fill="none" stroke="black" d="M267.82,-302.97C275.25,-262.77 277.27,-250.76 267.82,-210.99"/>
</g>
<!-- kot_service&#45;&gt;kot___main__ -->
<g id="edge15" class="edge">
<title>kot_service&#45;&gt;kot___main__</title><style>.edge>path:hover{stroke-width:8}</style>
<path fill="none" stroke="black" d="M195.82,-71.7C195.82,-63.98 195.82,-54.71 195.82,-46.11"/>
<polygon fill="#8a2e2e" stroke="black" points="199.32,-46.1 195.82,-36.1 192.32,-46.1 199.32,-46.1"/>
</g>
<!-- selenium -->
<g id="node11" class="node">
<title>selenium</title><style>.edge>path:hover{stroke-width:8}</style>
<polygon fill="#31c431" stroke="black" points="147.82,-832.91 144.82,-836.91 123.82,-836.91 120.82,-832.91 91.82,-832.91 91.82,-796.91 147.82,-796.91 147.82,-832.91"/>
<text text-anchor="middle" x="119.82" y="-812.41" font-family="Helvetica,sans-Serif" font-size="10.00" fill="#000000">selenium</text>
</g>
<!-- selenium&#45;&gt;kot_common_crawl -->
<g id="edge16" class="edge">
<title>selenium&#45;&gt;kot_common_crawl</title><style>.edge>path:hover{stroke-width:8}</style>
<path fill="none" stroke="black" d="M119.65,-796.63C120.28,-777.46 123.82,-746.43 138.82,-724.91 155.96,-700.34 186.84,-717.5 195.82,-688.91"/>
<path fill="none" stroke="black" d="M195.82,-687.91C201.33,-667.64 201.68,-644.22 200.5,-625.05"/>
<polygon fill="#31c431" stroke="black" points="203.97,-624.57 199.7,-614.87 196.99,-625.12 203.97,-624.57"/>
</g>
<!-- webdrivermanager -->
<g id="node12" class="node">
<title>webdrivermanager</title><style>.edge>path:hover{stroke-width:8}</style>
<polygon fill="#4c4cb3" stroke="black" points="243.82,-760.91 240.82,-764.91 219.82,-764.91 216.82,-760.91 147.82,-760.91 147.82,-724.91 243.82,-724.91 243.82,-760.91"/>
<text text-anchor="middle" x="195.82" y="-740.41" font-family="Helvetica,sans-Serif" font-size="10.00" fill="#ffffff">webdrivermanager</text>
</g>
<!-- webdrivermanager&#45;&gt;kot_common_crawl -->
<g id="edge17" class="edge">
<title>webdrivermanager&#45;&gt;kot_common_crawl</title><style>.edge>path:hover{stroke-width:8}</style>
<path fill="none" stroke="black" d="M193.26,-724.81C192.29,-714.23 192.18,-700.5 195.82,-688.91"/>
</g>
</g>
</svg>
