<?xml version="1.0" encoding="UTF-8" standalone="no"?>
<!DOCTYPE svg PUBLIC "-//W3C//DTD SVG 1.1//EN"
 "http://www.w3.org/Graphics/SVG/1.1/DTD/svg11.dtd">
<!-- Generated by graphviz version 3.0.0 (20220226.1711)
 -->
<!-- Title: G Pages: 1 -->
<svg width="448pt" height="983pt"
 viewBox="0.00 0.00 447.83 982.91" xmlns="http://www.w3.org/2000/svg" xmlns:xlink="http://www.w3.org/1999/xlink">
<g id="graph0" class="graph" transform="scale(1 1) rotate(0) translate(4 978.91)">
<title>G</title><style>.edge>path:hover{stroke-width:8}</style>
<polygon fill="white" stroke="transparent" points="-4,4 -4,-978.91 443.83,-978.91 443.83,4 -4,4"/>
<!-- kot___main__ -->
<g id="node1" class="node">
<title>kot___main__</title><style>.edge>path:hover{stroke-width:8}</style>
<ellipse fill="#a49746" stroke="black" cx="250.53" cy="-18" rx="44.3" ry="18"/>
<text text-anchor="middle" x="250.53" y="-15.5" font-family="Helvetica,sans-Serif" font-size="10.00" fill="#000000">kot.__main__</text>
</g>
<!-- kot_common_config -->
<g id="node2" class="node">
<title>kot_common_config</title><style>.edge>path:hover{stroke-width:8}</style>
<ellipse fill="#c0ad40" stroke="black" cx="399.53" cy="-244.99" rx="40.11" ry="28.98"/>
<text text-anchor="middle" x="399.53" y="-253.49" font-family="Helvetica,sans-Serif" font-size="10.00" fill="#000000">kot.</text>
<text text-anchor="middle" x="399.53" y="-242.49" font-family="Helvetica,sans-Serif" font-size="10.00" fill="#000000">common.</text>
<text text-anchor="middle" x="399.53" y="-231.49" font-family="Helvetica,sans-Serif" font-size="10.00" fill="#000000">config</text>
</g>
<!-- kot_service -->
<g id="node11" class="node">
<title>kot_service</title><style>.edge>path:hover{stroke-width:8}</style>
<ellipse fill="#82762b" stroke="black" cx="217.53" cy="-90" rx="38.03" ry="18"/>
<text text-anchor="middle" x="217.53" y="-87.5" font-family="Helvetica,sans-Serif" font-size="10.00" fill="#ffffff">kot.service</text>
</g>
<!-- kot_common_config&#45;&gt;kot_service -->
<g id="edge2" class="edge">
<title>kot_common_config&#45;&gt;kot_service</title><style>.edge>path:hover{stroke-width:8}</style>
<path fill="none" stroke="black" d="M369.4,-225.64C363.26,-222.23 356.77,-218.84 350.53,-216 292.62,-189.61 220.73,-226.55 217.53,-163"/>
</g>
<!-- kot_common_crawl -->
<g id="node3" class="node">
<title>kot_common_crawl</title><style>.edge>path:hover{stroke-width:8}</style>
<ellipse fill="#8b7a18" stroke="black" cx="120.53" cy="-620.92" rx="40.11" ry="28.98"/>
<text text-anchor="middle" x="120.53" y="-629.42" font-family="Helvetica,sans-Serif" font-size="10.00" fill="#ffffff">kot.</text>
<text text-anchor="middle" x="120.53" y="-618.42" font-family="Helvetica,sans-Serif" font-size="10.00" fill="#ffffff">common.</text>
<text text-anchor="middle" x="120.53" y="-607.42" font-family="Helvetica,sans-Serif" font-size="10.00" fill="#ffffff">crawl</text>
</g>
<!-- kot_myrecorder_crawl -->
<g id="node5" class="node">
<title>kot_myrecorder_crawl</title><style>.edge>path:hover{stroke-width:8}</style>
<ellipse fill="#b8a63d" stroke="black" cx="65.53" cy="-526.94" rx="48.17" ry="28.98"/>
<text text-anchor="middle" x="65.53" y="-535.44" font-family="Helvetica,sans-Serif" font-size="10.00" fill="#000000">kot.</text>
<text text-anchor="middle" x="65.53" y="-524.44" font-family="Helvetica,sans-Serif" font-size="10.00" fill="#000000">myrecorder.</text>
<text text-anchor="middle" x="65.53" y="-513.44" font-family="Helvetica,sans-Serif" font-size="10.00" fill="#000000">crawl</text>
</g>
<!-- kot_common_crawl&#45;&gt;kot_myrecorder_crawl -->
<g id="edge3" class="edge">
<title>kot_common_crawl&#45;&gt;kot_myrecorder_crawl</title><style>.edge>path:hover{stroke-width:8}</style>
<path fill="none" stroke="black" d="M104.91,-593.81C99.21,-584.28 92.67,-573.34 86.58,-563.15"/>
<polygon fill="#8b7a18" stroke="black" points="89.5,-561.22 81.37,-554.44 83.5,-564.82 89.5,-561.22"/>
</g>
<!-- kot_scrapekot_crawl -->
<g id="node8" class="node">
<title>kot_scrapekot_crawl</title><style>.edge>path:hover{stroke-width:8}</style>
<ellipse fill="#c4af31" stroke="black" cx="175.53" cy="-526.94" rx="43.68" ry="28.98"/>
<text text-anchor="middle" x="175.53" y="-535.44" font-family="Helvetica,sans-Serif" font-size="10.00" fill="#000000">kot.</text>
<text text-anchor="middle" x="175.53" y="-524.44" font-family="Helvetica,sans-Serif" font-size="10.00" fill="#000000">scrapekot.</text>
<text text-anchor="middle" x="175.53" y="-513.44" font-family="Helvetica,sans-Serif" font-size="10.00" fill="#000000">crawl</text>
</g>
<!-- kot_common_crawl&#45;&gt;kot_scrapekot_crawl -->
<g id="edge4" class="edge">
<title>kot_common_crawl&#45;&gt;kot_scrapekot_crawl</title><style>.edge>path:hover{stroke-width:8}</style>
<path fill="none" stroke="black" d="M136.14,-593.81C141.89,-584.2 148.49,-573.15 154.63,-562.88"/>
<polygon fill="#8b7a18" stroke="black" points="157.74,-564.5 159.87,-554.12 151.74,-560.9 157.74,-564.5"/>
</g>
<!-- kot_common_crawl&#45;&gt;kot_service -->
<g id="edge5" class="edge">
<title>kot_common_crawl&#45;&gt;kot_service</title><style>.edge>path:hover{stroke-width:8}</style>
<path fill="none" stroke="black" d="M65.53,-431.96C60.56,-349.38 42.9,-322.84 73.53,-245.99"/>
<path fill="none" stroke="black" d="M83.17,-609.52C57.2,-600.12 24.49,-583.43 8.53,-555.93 -4.41,-533.64 -0.65,-522.03 8.53,-497.95 22.08,-462.35 69.42,-471.84 65.53,-433.96"/>
<path fill="none" stroke="black" d="M73.53,-243.99C79.37,-230.14 80.91,-225.54 92.53,-216 139.15,-177.69 220.35,-223.28 217.53,-163"/>
<path fill="none" stroke="black" d="M217.53,-161C216.87,-146.96 216.8,-131.33 216.93,-118.4"/>
<polygon fill="#8b7a18" stroke="black" points="220.43,-118.32 217.08,-108.27 213.43,-118.22 220.43,-118.32"/>
</g>
<!-- kot_common_notify -->
<g id="node4" class="node">
<title>kot_common_notify</title><style>.edge>path:hover{stroke-width:8}</style>
<ellipse fill="#ccb633" stroke="black" cx="293.53" cy="-338.97" rx="40.11" ry="28.98"/>
<text text-anchor="middle" x="293.53" y="-347.47" font-family="Helvetica,sans-Serif" font-size="10.00" fill="#000000">kot.</text>
<text text-anchor="middle" x="293.53" y="-336.47" font-family="Helvetica,sans-Serif" font-size="10.00" fill="#000000">common.</text>
<text text-anchor="middle" x="293.53" y="-325.47" font-family="Helvetica,sans-Serif" font-size="10.00" fill="#000000">notify</text>
</g>
<!-- kot_myrecorder_notify -->
<g id="node6" class="node">
<title>kot_myrecorder_notify</title><style>.edge>path:hover{stroke-width:8}</style>
<ellipse fill="#b8a63d" stroke="black" cx="293.53" cy="-244.99" rx="48.17" ry="28.98"/>
<text text-anchor="middle" x="293.53" y="-253.49" font-family="Helvetica,sans-Serif" font-size="10.00" fill="#000000">kot.</text>
<text text-anchor="middle" x="293.53" y="-242.49" font-family="Helvetica,sans-Serif" font-size="10.00" fill="#000000">myrecorder.</text>
<text text-anchor="middle" x="293.53" y="-231.49" font-family="Helvetica,sans-Serif" font-size="10.00" fill="#000000">notify</text>
</g>
<!-- kot_common_notify&#45;&gt;kot_myrecorder_notify -->
<g id="edge6" class="edge">
<title>kot_common_notify&#45;&gt;kot_myrecorder_notify</title><style>.edge>path:hover{stroke-width:8}</style>
<path fill="none" stroke="black" d="M293.53,-309.88C293.53,-301.84 293.53,-292.94 293.53,-284.39"/>
<polygon fill="#ccb633" stroke="black" points="297.03,-284.23 293.53,-274.23 290.03,-284.23 297.03,-284.23"/>
</g>
<!-- kot_scrapekot_notify -->
<g id="node9" class="node">
<title>kot_scrapekot_notify</title><style>.edge>path:hover{stroke-width:8}</style>
<ellipse fill="#b09f3a" stroke="black" cx="145.53" cy="-244.99" rx="43.68" ry="28.98"/>
<text text-anchor="middle" x="145.53" y="-253.49" font-family="Helvetica,sans-Serif" font-size="10.00" fill="#000000">kot.</text>
<text text-anchor="middle" x="145.53" y="-242.49" font-family="Helvetica,sans-Serif" font-size="10.00" fill="#000000">scrapekot.</text>
<text text-anchor="middle" x="145.53" y="-231.49" font-family="Helvetica,sans-Serif" font-size="10.00" fill="#000000">notify</text>
</g>
<!-- kot_common_notify&#45;&gt;kot_scrapekot_notify -->
<g id="edge7" class="edge">
<title>kot_common_notify&#45;&gt;kot_scrapekot_notify</title><style>.edge>path:hover{stroke-width:8}</style>
<path fill="none" stroke="black" d="M263.58,-319.36C241.16,-305.43 210.26,-286.22 185.7,-270.96"/>
<polygon fill="#ccb633" stroke="black" points="187.3,-267.84 176.96,-265.53 183.61,-273.78 187.3,-267.84"/>
</g>
<!-- kot_myrecorder_crawl&#45;&gt;kot_service -->
<g id="edge8" class="edge">
<title>kot_myrecorder_crawl&#45;&gt;kot_service</title><style>.edge>path:hover{stroke-width:8}</style>
<path fill="none" stroke="black" d="M66.4,-497.73C66.75,-479.52 66.81,-455.32 65.53,-433.96"/>
</g>
<!-- kot_myrecorder_notify&#45;&gt;kot_service -->
<g id="edge9" class="edge">
<title>kot_myrecorder_notify&#45;&gt;kot_service</title><style>.edge>path:hover{stroke-width:8}</style>
<path fill="none" stroke="black" d="M259.52,-224.24C239.9,-210.1 218.84,-189 217.53,-163"/>
</g>
<!-- kot_scrapekot_aggregate -->
<g id="node7" class="node">
<title>kot_scrapekot_aggregate</title><style>.edge>path:hover{stroke-width:8}</style>
<ellipse fill="#c4af31" stroke="black" cx="137.53" cy="-338.97" rx="43.68" ry="28.98"/>
<text text-anchor="middle" x="137.53" y="-347.47" font-family="Helvetica,sans-Serif" font-size="10.00" fill="#000000">kot.</text>
<text text-anchor="middle" x="137.53" y="-336.47" font-family="Helvetica,sans-Serif" font-size="10.00" fill="#000000">scrapekot.</text>
<text text-anchor="middle" x="137.53" y="-325.47" font-family="Helvetica,sans-Serif" font-size="10.00" fill="#000000">aggregate</text>
</g>
<!-- kot_scrapekot_aggregate&#45;&gt;kot_scrapekot_notify -->
<g id="edge10" class="edge">
<title>kot_scrapekot_aggregate&#45;&gt;kot_scrapekot_notify</title><style>.edge>path:hover{stroke-width:8}</style>
<path fill="none" stroke="black" d="M139.97,-309.88C140.67,-301.84 141.44,-292.94 142.19,-284.39"/>
<polygon fill="#c4af31" stroke="black" points="145.69,-284.5 143.07,-274.23 138.72,-283.89 145.69,-284.5"/>
</g>
<!-- kot_scrapekot_aggregate&#45;&gt;kot_service -->
<g id="edge11" class="edge">
<title>kot_scrapekot_aggregate&#45;&gt;kot_service</title><style>.edge>path:hover{stroke-width:8}</style>
<path fill="none" stroke="black" d="M107.71,-317.31C86.24,-299.66 62.79,-272.92 73.53,-245.99"/>
</g>
<!-- kot_scrapekot_scrape -->
<g id="node10" class="node">
<title>kot_scrapekot_scrape</title><style>.edge>path:hover{stroke-width:8}</style>
<ellipse fill="#bca82f" stroke="black" cx="175.53" cy="-432.96" rx="43.68" ry="28.98"/>
<text text-anchor="middle" x="175.53" y="-441.46" font-family="Helvetica,sans-Serif" font-size="10.00" fill="#000000">kot.</text>
<text text-anchor="middle" x="175.53" y="-430.46" font-family="Helvetica,sans-Serif" font-size="10.00" fill="#000000">scrapekot.</text>
<text text-anchor="middle" x="175.53" y="-419.46" font-family="Helvetica,sans-Serif" font-size="10.00" fill="#000000">scrape</text>
</g>
<!-- kot_scrapekot_crawl&#45;&gt;kot_scrapekot_scrape -->
<g id="edge12" class="edge">
<title>kot_scrapekot_crawl&#45;&gt;kot_scrapekot_scrape</title><style>.edge>path:hover{stroke-width:8}</style>
<path fill="none" stroke="black" d="M175.53,-497.84C175.53,-489.8 175.53,-480.9 175.53,-472.36"/>
<polygon fill="#c4af31" stroke="black" points="179.03,-472.2 175.53,-462.2 172.03,-472.2 179.03,-472.2"/>
</g>
<!-- kot_scrapekot_crawl&#45;&gt;kot_service -->
<g id="edge13" class="edge">
<title>kot_scrapekot_crawl&#45;&gt;kot_service</title><style>.edge>path:hover{stroke-width:8}</style>
<path fill="none" stroke="black" d="M143.59,-506.73C111.55,-486.35 66.75,-454.33 65.53,-433.96"/>
</g>
<!-- kot_scrapekot_notify&#45;&gt;kot_service -->
<g id="edge14" class="edge">
<title>kot_scrapekot_notify&#45;&gt;kot_service</title><style>.edge>path:hover{stroke-width:8}</style>
<path fill="none" stroke="black" d="M177.72,-225.07C197.5,-210.75 218.84,-189.12 217.53,-163"/>
</g>
<!-- kot_scrapekot_scrape&#45;&gt;kot_scrapekot_aggregate -->
<g id="edge15" class="edge">
<title>kot_scrapekot_scrape&#45;&gt;kot_scrapekot_aggregate</title><style>.edge>path:hover{stroke-width:8}</style>
<path fill="none" stroke="black" d="M164.33,-404.86C160.69,-396.05 156.59,-386.12 152.71,-376.72"/>
<polygon fill="#bca82f" stroke="black" points="155.83,-375.1 148.77,-367.2 149.36,-377.78 155.83,-375.1"/>
</g>
<!-- kot_scrapekot_scrape&#45;&gt;kot_service -->
<g id="edge16" class="edge">
<title>kot_scrapekot_scrape&#45;&gt;kot_service</title><style>.edge>path:hover{stroke-width:8}</style>
<path fill="none" stroke="black" d="M183.68,-404.28C197.12,-355.74 222.02,-251.97 217.53,-163"/>
</g>
<!-- kot_service&#45;&gt;kot___main__ -->
<g id="edge17" class="edge">
<title>kot_service&#45;&gt;kot___main__</title><style>.edge>path:hover{stroke-width:8}</style>
<path fill="none" stroke="black" d="M225.51,-72.05C229.32,-63.97 233.97,-54.12 238.22,-45.11"/>
<polygon fill="#82762b" stroke="black" points="241.51,-46.33 242.61,-35.79 235.18,-43.34 241.51,-46.33"/>
</g>
<!-- bs4 -->
<g id="node12" class="node">
<title>bs4</title><style>.edge>path:hover{stroke-width:8}</style>
<polygon fill="#b65353" stroke="black" points="270.53,-721.91 267.53,-725.91 246.53,-725.91 243.53,-721.91 216.53,-721.91 216.53,-685.91 270.53,-685.91 270.53,-721.91"/>
<text text-anchor="middle" x="243.53" y="-701.41" font-family="Helvetica,sans-Serif" font-size="10.00" fill="#ffffff">bs4</text>
</g>
<!-- bs4&#45;&gt;kot_scrapekot_scrape -->
<g id="edge1" class="edge">
<title>bs4&#45;&gt;kot_scrapekot_scrape</title><style>.edge>path:hover{stroke-width:8}</style>
<path fill="none" stroke="black" d="M245.68,-685.66C249.5,-649.38 254.75,-563.16 228.53,-497.95 223.68,-485.91 215.7,-474.43 207.38,-464.6"/>
<polygon fill="#b65353" stroke="black" points="209.96,-462.23 200.69,-457.1 204.73,-466.89 209.96,-462.23"/>
</g>
<!-- requests -->
<g id="node13" class="node">
<title>requests</title><style>.edge>path:hover{stroke-width:8}</style>
<polygon fill="#5fcc33" stroke="black" points="224.53,-974.91 221.53,-978.91 200.53,-978.91 197.53,-974.91 170.53,-974.91 170.53,-938.91 224.53,-938.91 224.53,-974.91"/>
<text text-anchor="middle" x="197.53" y="-954.41" font-family="Helvetica,sans-Serif" font-size="10.00" fill="#000000">requests</text>
</g>
<!-- requests&#45;&gt;kot_common_notify -->
<g id="edge18" class="edge">
<title>requests&#45;&gt;kot_common_notify</title><style>.edge>path:hover{stroke-width:8}</style>
<path fill="none" stroke="black" d="M220.7,-938.78C250.52,-914.58 298.53,-867.31 298.53,-813.91 298.53,-813.91 298.53,-813.91 298.53,-525.94 298.53,-474.72 296.61,-415.59 295.15,-378.01"/>
<polygon fill="#5fcc33" stroke="black" points="298.64,-377.86 294.75,-368.01 291.65,-378.14 298.64,-377.86"/>
</g>
<!-- webdrivermanager -->
<g id="node16" class="node">
<title>webdrivermanager</title><style>.edge>path:hover{stroke-width:8}</style>
<polygon fill="#602fdb" stroke="black" points="152.53,-830.91 149.53,-834.91 128.53,-834.91 125.53,-830.91 56.53,-830.91 56.53,-794.91 152.53,-794.91 152.53,-830.91"/>
<text text-anchor="middle" x="104.53" y="-810.41" font-family="Helvetica,sans-Serif" font-size="10.00" fill="#ffffff">webdrivermanager</text>
</g>
<!-- requests&#45;&gt;webdrivermanager -->
<g id="edge19" class="edge">
<title>requests&#45;&gt;webdrivermanager</title><style>.edge>path:hover{stroke-width:8}</style>
<path fill="none" stroke="black" d="M176.64,-938.87C165.73,-929.18 152.77,-916.32 143.53,-902.91 130.19,-883.58 119.82,-858.95 113.14,-840.51"/>
<polygon fill="#5fcc33" stroke="black" points="116.41,-839.26 109.81,-830.97 109.8,-841.57 116.41,-839.26"/>
</g>
<!-- selenium -->
<g id="node14" class="node">
<title>selenium</title><style>.edge>path:hover{stroke-width:8}</style>
<polygon fill="#3bce8f" stroke="black" points="208.53,-902.91 205.53,-906.91 184.53,-906.91 181.53,-902.91 152.53,-902.91 152.53,-866.91 208.53,-866.91 208.53,-902.91"/>
<text text-anchor="middle" x="180.53" y="-882.41" font-family="Helvetica,sans-Serif" font-size="10.00" fill="#000000">selenium</text>
</g>
<!-- selenium&#45;&gt;kot_common_crawl -->
<g id="edge20" class="edge">
<title>selenium&#45;&gt;kot_common_crawl</title><style>.edge>path:hover{stroke-width:8}</style>
<path fill="none" stroke="black" d="M177.68,-866.55C174.3,-842.05 170.3,-796.17 180.53,-758.91"/>
</g>
<!-- typer -->
<g id="node15" class="node">
<title>typer</title><style>.edge>path:hover{stroke-width:8}</style>
<polygon fill="#4089c0" stroke="black" points="310.53,-180 307.53,-184 286.53,-184 283.53,-180 256.53,-180 256.53,-144 310.53,-144 310.53,-180"/>
<text text-anchor="middle" x="283.53" y="-159.5" font-family="Helvetica,sans-Serif" font-size="10.00" fill="#ffffff">typer</text>
</g>
<!-- typer&#45;&gt;kot___main__ -->
<g id="edge21" class="edge">
<title>typer&#45;&gt;kot___main__</title><style>.edge>path:hover{stroke-width:8}</style>
<path fill="none" stroke="black" d="M280.12,-143.88C276.5,-125.92 270.47,-96.9 264.53,-72 262.51,-63.54 260.14,-54.36 257.94,-46.06"/>
<polygon fill="#4089c0" stroke="black" points="261.25,-44.88 255.27,-36.13 254.49,-46.7 261.25,-44.88"/>
</g>
<!-- webdrivermanager&#45;&gt;kot_common_crawl -->
<g id="edge22" class="edge">
<title>webdrivermanager&#45;&gt;kot_common_crawl</title><style>.edge>path:hover{stroke-width:8}</style>
<path fill="none" stroke="black" d="M180.53,-757.91C192.16,-720.88 169.4,-680.41 148.65,-653.33"/>
<polygon fill="#602fdb" stroke="black" points="151.29,-651.02 142.32,-645.38 145.81,-655.38 151.29,-651.02"/>
<path fill="none" stroke="black" d="M148.82,-794.87C162.98,-786.59 176.14,-774.89 180.53,-758.91"/>
</g>
<!-- yaml -->
<g id="node17" class="node">
<title>yaml</title><style>.edge>path:hover{stroke-width:8}</style>
<polygon fill="#b653a8" stroke="black" points="426.53,-544.94 423.53,-548.94 402.53,-548.94 399.53,-544.94 372.53,-544.94 372.53,-508.94 426.53,-508.94 426.53,-544.94"/>
<text text-anchor="middle" x="399.53" y="-524.44" font-family="Helvetica,sans-Serif" font-size="10.00" fill="#ffffff">yaml</text>
</g>
<!-- yaml&#45;&gt;kot_common_config -->
<g id="edge23" class="edge">
<title>yaml&#45;&gt;kot_common_config</title><style>.edge>path:hover{stroke-width:8}</style>
<path fill="none" stroke="black" d="M399.53,-508.85C399.53,-464.63 399.53,-345.65 399.53,-284.07"/>
<polygon fill="#b653a8" stroke="black" points="403.03,-283.99 399.53,-273.99 396.03,-283.99 403.03,-283.99"/>
</g>
</g>
</svg>
