<?xml version="1.0" encoding="UTF-8" standalone="no"?>
<!DOCTYPE svg PUBLIC "-//W3C//DTD SVG 1.1//EN"
 "http://www.w3.org/Graphics/SVG/1.1/DTD/svg11.dtd">
<!-- Generated by graphviz version 3.0.0 (20220226.1711)
 -->
<!-- Title: G Pages: 1 -->
<svg width="604pt" height="758pt"
 viewBox="0.00 0.00 604.15 757.95" xmlns="http://www.w3.org/2000/svg" xmlns:xlink="http://www.w3.org/1999/xlink">
<g id="graph0" class="graph" transform="scale(1 1) rotate(0) translate(4 753.95)">
<title>G</title><style>.edge>path:hover{stroke-width:8}</style>
<polygon fill="white" stroke="transparent" points="-4,4 -4,-753.95 600.15,-753.95 600.15,4 -4,4"/>
<!-- kot___main__ -->
<g id="node1" class="node">
<title>kot___main__</title><style>.edge>path:hover{stroke-width:8}</style>
<ellipse fill="#a49746" stroke="black" cx="338.84" cy="-18" rx="44.3" ry="18"/>
<text text-anchor="middle" x="338.84" y="-15.5" font-family="Helvetica,sans-Serif" font-size="10.00" fill="#000000">kot.__main__</text>
</g>
<!-- kot_common_config -->
<g id="node2" class="node">
<title>kot_common_config</title><style>.edge>path:hover{stroke-width:8}</style>
<ellipse fill="#c0ad40" stroke="black" cx="555.84" cy="-244.99" rx="40.11" ry="28.98"/>
<text text-anchor="middle" x="555.84" y="-253.49" font-family="Helvetica,sans-Serif" font-size="10.00" fill="#000000">kot.</text>
<text text-anchor="middle" x="555.84" y="-242.49" font-family="Helvetica,sans-Serif" font-size="10.00" fill="#000000">common.</text>
<text text-anchor="middle" x="555.84" y="-231.49" font-family="Helvetica,sans-Serif" font-size="10.00" fill="#000000">config</text>
</g>
<!-- kot_service -->
<g id="node11" class="node">
<title>kot_service</title><style>.edge>path:hover{stroke-width:8}</style>
<ellipse fill="#82762b" stroke="black" cx="305.84" cy="-90" rx="38.03" ry="18"/>
<text text-anchor="middle" x="305.84" y="-87.5" font-family="Helvetica,sans-Serif" font-size="10.00" fill="#ffffff">kot.service</text>
</g>
<!-- kot_common_config&#45;&gt;kot_service -->
<g id="edge2" class="edge">
<title>kot_common_config&#45;&gt;kot_service</title><style>.edge>path:hover{stroke-width:8}</style>
<path fill="none" stroke="black" d="M525.06,-226.26C517.63,-222.48 509.59,-218.79 501.84,-216 416.95,-185.41 303.98,-253.22 305.84,-163"/>
</g>
<!-- kot_common_crawl -->
<g id="node3" class="node">
<title>kot_common_crawl</title><style>.edge>path:hover{stroke-width:8}</style>
<ellipse fill="#8b7a18" stroke="black" cx="153.84" cy="-338.97" rx="40.11" ry="28.98"/>
<text text-anchor="middle" x="153.84" y="-347.47" font-family="Helvetica,sans-Serif" font-size="10.00" fill="#ffffff">kot.</text>
<text text-anchor="middle" x="153.84" y="-336.47" font-family="Helvetica,sans-Serif" font-size="10.00" fill="#ffffff">common.</text>
<text text-anchor="middle" x="153.84" y="-325.47" font-family="Helvetica,sans-Serif" font-size="10.00" fill="#ffffff">crawl</text>
</g>
<!-- kot_myrecorder_crawl -->
<g id="node5" class="node">
<title>kot_myrecorder_crawl</title><style>.edge>path:hover{stroke-width:8}</style>
<ellipse fill="#b8a63d" stroke="black" cx="191.84" cy="-244.99" rx="48.17" ry="28.98"/>
<text text-anchor="middle" x="191.84" y="-253.49" font-family="Helvetica,sans-Serif" font-size="10.00" fill="#000000">kot.</text>
<text text-anchor="middle" x="191.84" y="-242.49" font-family="Helvetica,sans-Serif" font-size="10.00" fill="#000000">myrecorder.</text>
<text text-anchor="middle" x="191.84" y="-231.49" font-family="Helvetica,sans-Serif" font-size="10.00" fill="#000000">crawl</text>
</g>
<!-- kot_common_crawl&#45;&gt;kot_myrecorder_crawl -->
<g id="edge3" class="edge">
<title>kot_common_crawl&#45;&gt;kot_myrecorder_crawl</title><style>.edge>path:hover{stroke-width:8}</style>
<path fill="none" stroke="black" d="M165.04,-310.87C168.68,-302.06 172.78,-292.13 176.66,-282.74"/>
<polygon fill="#8b7a18" stroke="black" points="180.01,-283.79 180.59,-273.22 173.54,-281.12 180.01,-283.79"/>
</g>
<!-- kot_scrapekot_crawl -->
<g id="node8" class="node">
<title>kot_scrapekot_crawl</title><style>.edge>path:hover{stroke-width:8}</style>
<ellipse fill="#b8a63d" stroke="black" cx="43.84" cy="-244.99" rx="43.68" ry="28.98"/>
<text text-anchor="middle" x="43.84" y="-253.49" font-family="Helvetica,sans-Serif" font-size="10.00" fill="#000000">kot.</text>
<text text-anchor="middle" x="43.84" y="-242.49" font-family="Helvetica,sans-Serif" font-size="10.00" fill="#000000">scrapekot.</text>
<text text-anchor="middle" x="43.84" y="-231.49" font-family="Helvetica,sans-Serif" font-size="10.00" fill="#000000">crawl</text>
</g>
<!-- kot_common_crawl&#45;&gt;kot_scrapekot_crawl -->
<g id="edge4" class="edge">
<title>kot_common_crawl&#45;&gt;kot_scrapekot_crawl</title><style>.edge>path:hover{stroke-width:8}</style>
<path fill="none" stroke="black" d="M128.05,-316.41C113.34,-304.11 94.71,-288.53 78.71,-275.15"/>
<polygon fill="#8b7a18" stroke="black" points="80.53,-272.11 70.62,-268.38 76.04,-277.48 80.53,-272.11"/>
</g>
<!-- kot_common_crawl&#45;&gt;kot_service -->
<g id="edge5" class="edge">
<title>kot_common_crawl&#45;&gt;kot_service</title><style>.edge>path:hover{stroke-width:8}</style>
<path fill="none" stroke="black" d="M139.48,-311.52C127.16,-284.86 114.37,-243.78 134.84,-216 182.05,-151.95 304.2,-242.55 305.84,-163"/>
</g>
<!-- kot_common_notify -->
<g id="node4" class="node">
<title>kot_common_notify</title><style>.edge>path:hover{stroke-width:8}</style>
<ellipse fill="#ccb633" stroke="black" cx="305.84" cy="-338.97" rx="40.11" ry="28.98"/>
<text text-anchor="middle" x="305.84" y="-347.47" font-family="Helvetica,sans-Serif" font-size="10.00" fill="#000000">kot.</text>
<text text-anchor="middle" x="305.84" y="-336.47" font-family="Helvetica,sans-Serif" font-size="10.00" fill="#000000">common.</text>
<text text-anchor="middle" x="305.84" y="-325.47" font-family="Helvetica,sans-Serif" font-size="10.00" fill="#000000">notify</text>
</g>
<!-- kot_myrecorder_notify -->
<g id="node6" class="node">
<title>kot_myrecorder_notify</title><style>.edge>path:hover{stroke-width:8}</style>
<ellipse fill="#b8a63d" stroke="black" cx="305.84" cy="-244.99" rx="48.17" ry="28.98"/>
<text text-anchor="middle" x="305.84" y="-253.49" font-family="Helvetica,sans-Serif" font-size="10.00" fill="#000000">kot.</text>
<text text-anchor="middle" x="305.84" y="-242.49" font-family="Helvetica,sans-Serif" font-size="10.00" fill="#000000">myrecorder.</text>
<text text-anchor="middle" x="305.84" y="-231.49" font-family="Helvetica,sans-Serif" font-size="10.00" fill="#000000">notify</text>
</g>
<!-- kot_common_notify&#45;&gt;kot_myrecorder_notify -->
<g id="edge6" class="edge">
<title>kot_common_notify&#45;&gt;kot_myrecorder_notify</title><style>.edge>path:hover{stroke-width:8}</style>
<path fill="none" stroke="black" d="M305.84,-309.88C305.84,-301.84 305.84,-292.94 305.84,-284.39"/>
<polygon fill="#ccb633" stroke="black" points="309.34,-284.23 305.84,-274.23 302.34,-284.23 309.34,-284.23"/>
</g>
<!-- kot_scrapekot_notify -->
<g id="node9" class="node">
<title>kot_scrapekot_notify</title><style>.edge>path:hover{stroke-width:8}</style>
<ellipse fill="#b09f3a" stroke="black" cx="415.84" cy="-244.99" rx="43.68" ry="28.98"/>
<text text-anchor="middle" x="415.84" y="-253.49" font-family="Helvetica,sans-Serif" font-size="10.00" fill="#000000">kot.</text>
<text text-anchor="middle" x="415.84" y="-242.49" font-family="Helvetica,sans-Serif" font-size="10.00" fill="#000000">scrapekot.</text>
<text text-anchor="middle" x="415.84" y="-231.49" font-family="Helvetica,sans-Serif" font-size="10.00" fill="#000000">notify</text>
</g>
<!-- kot_common_notify&#45;&gt;kot_scrapekot_notify -->
<g id="edge7" class="edge">
<title>kot_common_notify&#45;&gt;kot_scrapekot_notify</title><style>.edge>path:hover{stroke-width:8}</style>
<path fill="none" stroke="black" d="M331.63,-316.41C346.34,-304.11 364.97,-288.53 380.97,-275.15"/>
<polygon fill="#ccb633" stroke="black" points="383.64,-277.48 389.06,-268.38 379.15,-272.11 383.64,-277.48"/>
</g>
<!-- kot_myrecorder_crawl&#45;&gt;kot_service -->
<g id="edge8" class="edge">
<title>kot_myrecorder_crawl&#45;&gt;kot_service</title><style>.edge>path:hover{stroke-width:8}</style>
<path fill="none" stroke="black" d="M228.68,-226.07C261.84,-208.7 305.44,-182.24 305.84,-163"/>
</g>
<!-- kot_myrecorder_notify&#45;&gt;kot_service -->
<g id="edge9" class="edge">
<title>kot_myrecorder_notify&#45;&gt;kot_service</title><style>.edge>path:hover{stroke-width:8}</style>
<path fill="none" stroke="black" d="M305.56,-215.88C305.47,-200.29 305.48,-180.57 305.84,-163"/>
</g>
<!-- kot_scrapekot_aggregate -->
<g id="node7" class="node">
<title>kot_scrapekot_aggregate</title><style>.edge>path:hover{stroke-width:8}</style>
<ellipse fill="#c4af31" stroke="black" cx="415.84" cy="-338.97" rx="43.68" ry="28.98"/>
<text text-anchor="middle" x="415.84" y="-347.47" font-family="Helvetica,sans-Serif" font-size="10.00" fill="#000000">kot.</text>
<text text-anchor="middle" x="415.84" y="-336.47" font-family="Helvetica,sans-Serif" font-size="10.00" fill="#000000">scrapekot.</text>
<text text-anchor="middle" x="415.84" y="-325.47" font-family="Helvetica,sans-Serif" font-size="10.00" fill="#000000">aggregate</text>
</g>
<!-- kot_scrapekot_aggregate&#45;&gt;kot_scrapekot_notify -->
<g id="edge10" class="edge">
<title>kot_scrapekot_aggregate&#45;&gt;kot_scrapekot_notify</title><style>.edge>path:hover{stroke-width:8}</style>
<path fill="none" stroke="black" d="M415.84,-309.88C415.84,-301.84 415.84,-292.94 415.84,-284.39"/>
<polygon fill="#c4af31" stroke="black" points="419.34,-284.23 415.84,-274.23 412.34,-284.23 419.34,-284.23"/>
</g>
<!-- kot_scrapekot_aggregate&#45;&gt;kot_service -->
<g id="edge11" class="edge">
<title>kot_scrapekot_aggregate&#45;&gt;kot_service</title><style>.edge>path:hover{stroke-width:8}</style>
<path fill="none" stroke="black" d="M487.84,-243.99C460.07,-176.16 403.64,-207.86 335.84,-180 321.67,-174.17 305.52,-178.32 305.84,-163"/>
<path fill="none" stroke="black" d="M447.62,-318.89C471.95,-301.6 499.52,-274.52 487.84,-245.99"/>
</g>
<!-- kot_scrapekot_crawl&#45;&gt;kot_service -->
<g id="edge12" class="edge">
<title>kot_scrapekot_crawl&#45;&gt;kot_service</title><style>.edge>path:hover{stroke-width:8}</style>
<path fill="none" stroke="black" d="M305.84,-161C306.13,-146.95 306.16,-131.31 306.1,-118.39"/>
<polygon fill="#b8a63d" stroke="black" points="309.6,-118.24 306.04,-108.26 302.6,-118.28 309.6,-118.24"/>
<path fill="none" stroke="black" d="M77.71,-226.28C85.51,-222.59 93.86,-218.93 101.84,-216 189.78,-183.71 303.91,-256.66 305.84,-163"/>
</g>
<!-- kot_scrapekot_notify&#45;&gt;kot_service -->
<g id="edge13" class="edge">
<title>kot_scrapekot_notify&#45;&gt;kot_service</title><style>.edge>path:hover{stroke-width:8}</style>
<path fill="none" stroke="black" d="M384.54,-224.65C351.95,-203.97 305.64,-172.84 305.84,-163"/>
</g>
<!-- kot_scrapekot_scrape -->
<g id="node10" class="node">
<title>kot_scrapekot_scrape</title><style>.edge>path:hover{stroke-width:8}</style>
<ellipse fill="#c4af31" stroke="black" cx="415.84" cy="-432.96" rx="43.68" ry="28.98"/>
<text text-anchor="middle" x="415.84" y="-441.46" font-family="Helvetica,sans-Serif" font-size="10.00" fill="#000000">kot.</text>
<text text-anchor="middle" x="415.84" y="-430.46" font-family="Helvetica,sans-Serif" font-size="10.00" fill="#000000">scrapekot.</text>
<text text-anchor="middle" x="415.84" y="-419.46" font-family="Helvetica,sans-Serif" font-size="10.00" fill="#000000">scrape</text>
</g>
<!-- kot_scrapekot_scrape&#45;&gt;kot_scrapekot_aggregate -->
<g id="edge14" class="edge">
<title>kot_scrapekot_scrape&#45;&gt;kot_scrapekot_aggregate</title><style>.edge>path:hover{stroke-width:8}</style>
<path fill="none" stroke="black" d="M415.84,-403.86C415.84,-395.82 415.84,-386.92 415.84,-378.38"/>
<polygon fill="#c4af31" stroke="black" points="419.34,-378.22 415.84,-368.22 412.34,-378.22 419.34,-378.22"/>
</g>
<!-- kot_scrapekot_scrape&#45;&gt;kot_service -->
<g id="edge15" class="edge">
<title>kot_scrapekot_scrape&#45;&gt;kot_service</title><style>.edge>path:hover{stroke-width:8}</style>
<path fill="none" stroke="black" d="M440.44,-408.57C450.84,-397.29 462.09,-382.96 468.84,-367.97 491.37,-317.94 508.63,-296.77 487.84,-245.99"/>
</g>
<!-- kot_service&#45;&gt;kot___main__ -->
<g id="edge16" class="edge">
<title>kot_service&#45;&gt;kot___main__</title><style>.edge>path:hover{stroke-width:8}</style>
<path fill="none" stroke="black" d="M313.83,-72.05C317.64,-63.97 322.28,-54.12 326.53,-45.11"/>
<polygon fill="#82762b" stroke="black" points="329.83,-46.33 330.93,-35.79 323.5,-43.34 329.83,-46.33"/>
</g>
<!-- bs4 -->
<g id="node12" class="node">
<title>bs4</title><style>.edge>path:hover{stroke-width:8}</style>
<polygon fill="#b65353" stroke="black" points="442.84,-677.95 439.84,-681.95 418.84,-681.95 415.84,-677.95 388.84,-677.95 388.84,-641.95 442.84,-641.95 442.84,-677.95"/>
<text text-anchor="middle" x="415.84" y="-657.45" font-family="Helvetica,sans-Serif" font-size="10.00" fill="#ffffff">bs4</text>
</g>
<!-- bs4&#45;&gt;kot_scrapekot_scrape -->
<g id="edge1" class="edge">
<title>bs4&#45;&gt;kot_scrapekot_scrape</title><style>.edge>path:hover{stroke-width:8}</style>
<path fill="none" stroke="black" d="M415.84,-641.67C415.84,-605.72 415.84,-522.12 415.84,-472.63"/>
<polygon fill="#b65353" stroke="black" points="419.34,-472.32 415.84,-462.32 412.34,-472.32 419.34,-472.32"/>
</g>
<!-- requests -->
<g id="node13" class="node">
<title>requests</title><style>.edge>path:hover{stroke-width:8}</style>
<polygon fill="#5fcc33" stroke="black" points="313.84,-749.95 310.84,-753.95 289.84,-753.95 286.84,-749.95 259.84,-749.95 259.84,-713.95 313.84,-713.95 313.84,-749.95"/>
<text text-anchor="middle" x="286.84" y="-729.45" font-family="Helvetica,sans-Serif" font-size="10.00" fill="#000000">requests</text>
</g>
<!-- requests&#45;&gt;kot_common_notify -->
<g id="edge17" class="edge">
<title>requests&#45;&gt;kot_common_notify</title><style>.edge>path:hover{stroke-width:8}</style>
<path fill="none" stroke="black" d="M286.84,-658.95C253.07,-561.87 278.13,-438.23 294.56,-377.33"/>
<polygon fill="#5fcc33" stroke="black" points="298.01,-377.97 297.31,-367.4 291.27,-376.1 298.01,-377.97"/>
</g>
<!-- webdrivermanager -->
<g id="node16" class="node">
<title>webdrivermanager</title><style>.edge>path:hover{stroke-width:8}</style>
<polygon fill="#602fdb" stroke="black" points="220.84,-605.95 217.84,-609.95 196.84,-609.95 193.84,-605.95 124.84,-605.95 124.84,-569.95 220.84,-569.95 220.84,-605.95"/>
<text text-anchor="middle" x="172.84" y="-585.45" font-family="Helvetica,sans-Serif" font-size="10.00" fill="#ffffff">webdrivermanager</text>
</g>
<!-- requests&#45;&gt;webdrivermanager -->
<g id="edge18" class="edge">
<title>requests&#45;&gt;webdrivermanager</title><style>.edge>path:hover{stroke-width:8}</style>
<path fill="none" stroke="black" d="M286.84,-658.95C278.05,-633.68 254.08,-616.97 230.38,-606.25"/>
<polygon fill="#5fcc33" stroke="black" points="231.56,-602.95 220.99,-602.28 228.84,-609.4 231.56,-602.95"/>
<path fill="none" stroke="black" d="M289.92,-713.74C291.8,-699.24 292.83,-678.17 286.84,-660.95"/>
</g>
<!-- selenium -->
<g id="node14" class="node">
<title>selenium</title><style>.edge>path:hover{stroke-width:8}</style>
<polygon fill="#3bce8f" stroke="black" points="124.84,-677.95 121.84,-681.95 100.84,-681.95 97.84,-677.95 68.84,-677.95 68.84,-641.95 124.84,-641.95 124.84,-677.95"/>
<text text-anchor="middle" x="96.84" y="-657.45" font-family="Helvetica,sans-Serif" font-size="10.00" fill="#000000">selenium</text>
</g>
<!-- selenium&#45;&gt;kot_common_crawl -->
<g id="edge19" class="edge">
<title>selenium&#45;&gt;kot_common_crawl</title><style>.edge>path:hover{stroke-width:8}</style>
<path fill="none" stroke="black" d="M97.46,-641.8C98.8,-623.04 102.98,-592.62 115.84,-569.95 132.91,-539.86 164.52,-550.53 172.84,-516.95"/>
<path fill="none" stroke="black" d="M172.84,-514.95C182.63,-468.13 173.35,-413.14 164.65,-377.48"/>
<polygon fill="#3bce8f" stroke="black" points="167.97,-376.34 162.11,-367.51 161.19,-378.07 167.97,-376.34"/>
</g>
<!-- typer -->
<g id="node15" class="node">
<title>typer</title><style>.edge>path:hover{stroke-width:8}</style>
<polygon fill="#4089c0" stroke="black" points="398.84,-180 395.84,-184 374.84,-184 371.84,-180 344.84,-180 344.84,-144 398.84,-144 398.84,-180"/>
<text text-anchor="middle" x="371.84" y="-159.5" font-family="Helvetica,sans-Serif" font-size="10.00" fill="#ffffff">typer</text>
</g>
<!-- typer&#45;&gt;kot___main__ -->
<g id="edge20" class="edge">
<title>typer&#45;&gt;kot___main__</title><style>.edge>path:hover{stroke-width:8}</style>
<path fill="none" stroke="black" d="M368.44,-143.88C364.81,-125.92 358.78,-96.9 352.84,-72 350.82,-63.54 348.46,-54.36 346.26,-46.06"/>
<polygon fill="#4089c0" stroke="black" points="349.56,-44.88 343.59,-36.13 342.8,-46.7 349.56,-44.88"/>
</g>
<!-- webdrivermanager&#45;&gt;kot_common_crawl -->
<g id="edge21" class="edge">
<title>webdrivermanager&#45;&gt;kot_common_crawl</title><style>.edge>path:hover{stroke-width:8}</style>
<path fill="none" stroke="black" d="M170.56,-569.7C169.2,-555.35 168.49,-534.52 172.84,-516.95"/>
</g>
<!-- yaml -->
<g id="node17" class="node">
<title>yaml</title><style>.edge>path:hover{stroke-width:8}</style>
<polygon fill="#b653a8" stroke="black" points="582.84,-533.95 579.84,-537.95 558.84,-537.95 555.84,-533.95 528.84,-533.95 528.84,-497.95 582.84,-497.95 582.84,-533.95"/>
<text text-anchor="middle" x="555.84" y="-513.45" font-family="Helvetica,sans-Serif" font-size="10.00" fill="#ffffff">yaml</text>
</g>
<!-- yaml&#45;&gt;kot_common_config -->
<g id="edge22" class="edge">
<title>yaml&#45;&gt;kot_common_config</title><style>.edge>path:hover{stroke-width:8}</style>
<path fill="none" stroke="black" d="M555.84,-497.71C555.84,-455.06 555.84,-343.73 555.84,-284.44"/>
<polygon fill="#b653a8" stroke="black" points="559.34,-284.36 555.84,-274.36 552.34,-284.36 559.34,-284.36"/>
</g>
</g>
</svg>
