<?xml version="1.0" encoding="UTF-8" standalone="no"?>
<!DOCTYPE svg PUBLIC "-//W3C//DTD SVG 1.1//EN"
 "http://www.w3.org/Graphics/SVG/1.1/DTD/svg11.dtd">
<!-- Generated by graphviz version 3.0.0 (20220226.1711)
 -->
<!-- Title: G Pages: 1 -->
<svg width="435pt" height="548pt"
 viewBox="0.00 0.00 435.00 548.00" xmlns="http://www.w3.org/2000/svg" xmlns:xlink="http://www.w3.org/1999/xlink">
<g id="graph0" class="graph" transform="scale(1 1) rotate(0) translate(4 544)">
<title>G</title><style>.edge>path:hover{stroke-width:8}</style>
<polygon fill="white" stroke="transparent" points="-4,4 -4,-544 431,-544 431,4 -4,4"/>
<!-- kot___main__ -->
<g id="node1" class="node">
<title>kot___main__</title><style>.edge>path:hover{stroke-width:8}</style>
<ellipse fill="#a49746" stroke="black" cx="275" cy="-18" rx="44.3" ry="18"/>
<text text-anchor="middle" x="275" y="-15.5" font-family="Helvetica,sans-Serif" font-size="10.00" fill="#000000">kot.__main__</text>
</g>
<!-- kot_aggregate -->
<g id="node2" class="node">
<title>kot_aggregate</title><style>.edge>path:hover{stroke-width:8}</style>
<ellipse fill="#c4af31" stroke="black" cx="111" cy="-234" rx="44.98" ry="18"/>
<text text-anchor="middle" x="111" y="-231.5" font-family="Helvetica,sans-Serif" font-size="10.00" fill="#000000">kot.aggregate</text>
</g>
<!-- kot_notify -->
<g id="node5" class="node">
<title>kot_notify</title><style>.edge>path:hover{stroke-width:8}</style>
<ellipse fill="#a89838" stroke="black" cx="117" cy="-162" rx="33.61" ry="18"/>
<text text-anchor="middle" x="117" y="-159.5" font-family="Helvetica,sans-Serif" font-size="10.00" fill="#000000">kot.notify</text>
</g>
<!-- kot_aggregate&#45;&gt;kot_notify -->
<g id="edge2" class="edge">
<title>kot_aggregate&#45;&gt;kot_notify</title><style>.edge>path:hover{stroke-width:8}</style>
<path fill="none" stroke="black" d="M112.48,-215.7C113.14,-207.98 113.94,-198.71 114.68,-190.11"/>
<polygon fill="#c4af31" stroke="black" points="118.17,-190.37 115.53,-180.1 111.19,-189.77 118.17,-190.37"/>
</g>
<!-- kot_service -->
<g id="node8" class="node">
<title>kot_service</title><style>.edge>path:hover{stroke-width:8}</style>
<ellipse fill="#918430" stroke="black" cx="216" cy="-90" rx="38.03" ry="18"/>
<text text-anchor="middle" x="216" y="-87.5" font-family="Helvetica,sans-Serif" font-size="10.00" fill="#ffffff">kot.service</text>
</g>
<!-- kot_aggregate&#45;&gt;kot_service -->
<g id="edge3" class="edge">
<title>kot_aggregate&#45;&gt;kot_service</title><style>.edge>path:hover{stroke-width:8}</style>
<path fill="none" stroke="black" d="M184,-161C190.86,-146.57 198.29,-130.36 204.26,-117.17"/>
<polygon fill="#c4af31" stroke="black" points="207.59,-118.31 208.51,-107.75 201.21,-115.43 207.59,-118.31"/>
<path fill="none" stroke="black" d="M133.41,-218.41C150.49,-205.93 172.92,-186.31 184,-163"/>
</g>
<!-- kot_config -->
<g id="node3" class="node">
<title>kot_config</title><style>.edge>path:hover{stroke-width:8}</style>
<ellipse fill="#e6c919" stroke="black" cx="184" cy="-306" rx="34.96" ry="18"/>
<text text-anchor="middle" x="184" y="-303.5" font-family="Helvetica,sans-Serif" font-size="10.00" fill="#000000">kot.config</text>
</g>
<!-- kot_crawl -->
<g id="node4" class="node">
<title>kot_crawl</title><style>.edge>path:hover{stroke-width:8}</style>
<ellipse fill="#7a6d1e" stroke="black" cx="309" cy="-234" rx="32.93" ry="18"/>
<text text-anchor="middle" x="309" y="-231.5" font-family="Helvetica,sans-Serif" font-size="10.00" fill="#ffffff">kot.crawl</text>
</g>
<!-- kot_config&#45;&gt;kot_crawl -->
<g id="edge4" class="edge">
<title>kot_config&#45;&gt;kot_crawl</title><style>.edge>path:hover{stroke-width:8}</style>
<path fill="none" stroke="black" d="M206.64,-292.32C226.46,-281.22 255.46,-264.98 277.54,-252.62"/>
<polygon fill="#e6c919" stroke="black" points="279.52,-255.52 286.53,-247.58 276.1,-249.41 279.52,-255.52"/>
</g>
<!-- kot_config&#45;&gt;kot_notify -->
<g id="edge5" class="edge">
<title>kot_config&#45;&gt;kot_notify</title><style>.edge>path:hover{stroke-width:8}</style>
<path fill="none" stroke="black" d="M184.09,-287.74C184.14,-273.57 184.17,-252.99 184,-235"/>
<path fill="none" stroke="black" d="M184,-233C183.8,-210.94 166.22,-193.11 149.12,-180.97"/>
<polygon fill="#e6c919" stroke="black" points="150.59,-177.74 140.32,-175.14 146.73,-183.58 150.59,-177.74"/>
</g>
<!-- kot_punch -->
<g id="node6" class="node">
<title>kot_punch</title><style>.edge>path:hover{stroke-width:8}</style>
<ellipse fill="#a89838" stroke="black" cx="247" cy="-162" rx="34.96" ry="18"/>
<text text-anchor="middle" x="247" y="-159.5" font-family="Helvetica,sans-Serif" font-size="10.00" fill="#000000">kot.punch</text>
</g>
<!-- kot_config&#45;&gt;kot_punch -->
<g id="edge6" class="edge">
<title>kot_config&#45;&gt;kot_punch</title><style>.edge>path:hover{stroke-width:8}</style>
<path fill="none" stroke="black" d="M184,-233C183.8,-211.7 200.12,-193.95 216.2,-181.65"/>
<polygon fill="#e6c919" stroke="black" points="218.39,-184.39 224.5,-175.73 214.33,-178.69 218.39,-184.39"/>
</g>
<!-- kot_config&#45;&gt;kot_service -->
<g id="edge7" class="edge">
<title>kot_config&#45;&gt;kot_service</title><style>.edge>path:hover{stroke-width:8}</style>
<path fill="none" stroke="black" d="M184,-233C183.71,-201.89 170.64,-191.1 184,-163"/>
</g>
<!-- kot_crawl&#45;&gt;kot_punch -->
<g id="edge8" class="edge">
<title>kot_crawl&#45;&gt;kot_punch</title><style>.edge>path:hover{stroke-width:8}</style>
<path fill="none" stroke="black" d="M295.24,-217.46C287.25,-208.44 277.01,-196.88 268.02,-186.73"/>
<polygon fill="#7a6d1e" stroke="black" points="270.4,-184.14 261.15,-178.98 265.16,-188.78 270.4,-184.14"/>
</g>
<!-- kot_crawl&#45;&gt;kot_service -->
<g id="edge9" class="edge">
<title>kot_crawl&#45;&gt;kot_service</title><style>.edge>path:hover{stroke-width:8}</style>
<path fill="none" stroke="black" d="M309.19,-215.86C308.61,-196.84 305.29,-165.92 291,-144 281.27,-129.07 265.73,-117.07 251.32,-108.29"/>
<polygon fill="#7a6d1e" stroke="black" points="252.96,-105.2 242.55,-103.24 249.47,-111.26 252.96,-105.2"/>
</g>
<!-- kot_notify&#45;&gt;kot_service -->
<g id="edge10" class="edge">
<title>kot_notify&#45;&gt;kot_service</title><style>.edge>path:hover{stroke-width:8}</style>
<path fill="none" stroke="black" d="M136.56,-147.17C150.92,-137.02 170.66,-123.06 186.87,-111.6"/>
<polygon fill="#a89838" stroke="black" points="189.31,-114.16 195.46,-105.52 185.27,-108.44 189.31,-114.16"/>
</g>
<!-- kot_punch&#45;&gt;kot_service -->
<g id="edge11" class="edge">
<title>kot_punch&#45;&gt;kot_service</title><style>.edge>path:hover{stroke-width:8}</style>
<path fill="none" stroke="black" d="M239.5,-144.05C235.92,-135.97 231.55,-126.12 227.56,-117.11"/>
<polygon fill="#a89838" stroke="black" points="230.68,-115.52 223.44,-107.79 224.28,-118.35 230.68,-115.52"/>
</g>
<!-- kot_scrape -->
<g id="node7" class="node">
<title>kot_scrape</title><style>.edge>path:hover{stroke-width:8}</style>
<ellipse fill="#c4af31" stroke="black" cx="79" cy="-306" rx="36.49" ry="18"/>
<text text-anchor="middle" x="79" y="-303.5" font-family="Helvetica,sans-Serif" font-size="10.00" fill="#000000">kot.scrape</text>
</g>
<!-- kot_scrape&#45;&gt;kot_aggregate -->
<g id="edge12" class="edge">
<title>kot_scrape&#45;&gt;kot_aggregate</title><style>.edge>path:hover{stroke-width:8}</style>
<path fill="none" stroke="black" d="M86.75,-288.05C90.44,-279.97 94.94,-270.12 99.06,-261.11"/>
<polygon fill="#c4af31" stroke="black" points="102.35,-262.34 103.33,-251.79 95.98,-259.43 102.35,-262.34"/>
</g>
<!-- kot_scrape&#45;&gt;kot_service -->
<g id="edge13" class="edge">
<title>kot_scrape&#45;&gt;kot_service</title><style>.edge>path:hover{stroke-width:8}</style>
<path fill="none" stroke="black" d="M70.1,-288.35C65.17,-278.17 59.53,-264.7 57,-252 47.5,-204.35 41.86,-180.44 74,-144 98.19,-116.57 137.95,-103.31 169.26,-96.91"/>
<polygon fill="#c4af31" stroke="black" points="169.92,-100.35 179.1,-95.06 168.63,-93.47 169.92,-100.35"/>
</g>
<!-- kot_service&#45;&gt;kot___main__ -->
<g id="edge14" class="edge">
<title>kot_service&#45;&gt;kot___main__</title><style>.edge>path:hover{stroke-width:8}</style>
<path fill="none" stroke="black" d="M229.39,-73.12C236.83,-64.29 246.23,-53.13 254.57,-43.24"/>
<polygon fill="#918430" stroke="black" points="257.49,-45.21 261.26,-35.31 252.13,-40.7 257.49,-45.21"/>
</g>
<!-- bs4 -->
<g id="node9" class="node">
<title>bs4</title><style>.edge>path:hover{stroke-width:8}</style>
<polygon fill="#b65353" stroke="black" points="106,-468 103,-472 82,-472 79,-468 52,-468 52,-432 106,-432 106,-468"/>
<text text-anchor="middle" x="79" y="-447.5" font-family="Helvetica,sans-Serif" font-size="10.00" fill="#ffffff">bs4</text>
</g>
<!-- bs4&#45;&gt;kot_scrape -->
<g id="edge1" class="edge">
<title>bs4&#45;&gt;kot_scrape</title><style>.edge>path:hover{stroke-width:8}</style>
<path fill="none" stroke="black" d="M79,-431.87C79,-407.67 79,-363.21 79,-334.39"/>
<polygon fill="#b65353" stroke="black" points="82.5,-334.19 79,-324.19 75.5,-334.19 82.5,-334.19"/>
</g>
<!-- requests -->
<g id="node10" class="node">
<title>requests</title><style>.edge>path:hover{stroke-width:8}</style>
<polygon fill="#59d926" stroke="black" points="151,-540 148,-544 127,-544 124,-540 97,-540 97,-504 151,-504 151,-540"/>
<text text-anchor="middle" x="124" y="-519.5" font-family="Helvetica,sans-Serif" font-size="10.00" fill="#000000">requests</text>
</g>
<!-- requests&#45;&gt;kot_notify -->
<g id="edge15" class="edge">
<title>requests&#45;&gt;kot_notify</title><style>.edge>path:hover{stroke-width:8}</style>
<path fill="none" stroke="black" d="M96.85,-508.1C79.68,-498.85 57.97,-485.05 43,-468 14.01,-434.99 0,-422.93 0,-379 0,-379 0,-379 0,-305 0,-250.37 52.21,-205.37 86.87,-181.5"/>
<polygon fill="#59d926" stroke="black" points="88.9,-184.36 95.27,-175.89 85.01,-178.54 88.9,-184.36"/>
</g>
<!-- requests&#45;&gt;kot_punch -->
<g id="edge16" class="edge">
<title>requests&#45;&gt;kot_punch</title><style>.edge>path:hover{stroke-width:8}</style>
<path fill="none" stroke="black" d="M247,-449C264.56,-430.65 254.05,-258.93 249.12,-190.73"/>
<polygon fill="#59d926" stroke="black" points="252.58,-190.06 248.36,-180.35 245.6,-190.58 252.58,-190.06"/>
<path fill="none" stroke="black" d="M151.14,-510.53C178.01,-499.1 219.08,-478.68 247,-451"/>
</g>
<!-- webdrivermanager -->
<g id="node13" class="node">
<title>webdrivermanager</title><style>.edge>path:hover{stroke-width:8}</style>
<polygon fill="#602fdb" stroke="black" points="371,-396 368,-400 347,-400 344,-396 275,-396 275,-360 371,-360 371,-396"/>
<text text-anchor="middle" x="323" y="-375.5" font-family="Helvetica,sans-Serif" font-size="10.00" fill="#ffffff">webdrivermanager</text>
</g>
<!-- requests&#45;&gt;webdrivermanager -->
<g id="edge17" class="edge">
<title>requests&#45;&gt;webdrivermanager</title><style>.edge>path:hover{stroke-width:8}</style>
<path fill="none" stroke="black" d="M247,-449C262.28,-433.03 280.45,-416.23 295.19,-403.08"/>
<polygon fill="#59d926" stroke="black" points="297.82,-405.43 302.99,-396.19 293.18,-400.19 297.82,-405.43"/>
</g>
<!-- selenium -->
<g id="node11" class="node">
<title>selenium</title><style>.edge>path:hover{stroke-width:8}</style>
<polygon fill="#3bce8f" stroke="black" points="427,-540 424,-544 403,-544 400,-540 371,-540 371,-504 427,-504 427,-540"/>
<text text-anchor="middle" x="399" y="-519.5" font-family="Helvetica,sans-Serif" font-size="10.00" fill="#000000">selenium</text>
</g>
<!-- selenium&#45;&gt;kot_crawl -->
<g id="edge18" class="edge">
<title>selenium&#45;&gt;kot_crawl</title><style>.edge>path:hover{stroke-width:8}</style>
<path fill="none" stroke="black" d="M401.34,-503.84C405.83,-467.2 413.95,-378.84 399,-307"/>
</g>
<!-- typer -->
<g id="node12" class="node">
<title>typer</title><style>.edge>path:hover{stroke-width:8}</style>
<polygon fill="#4089c0" stroke="black" points="392,-180 389,-184 368,-184 365,-180 338,-180 338,-144 392,-144 392,-180"/>
<text text-anchor="middle" x="365" y="-159.5" font-family="Helvetica,sans-Serif" font-size="10.00" fill="#ffffff">typer</text>
</g>
<!-- typer&#45;&gt;kot___main__ -->
<g id="edge19" class="edge">
<title>typer&#45;&gt;kot___main__</title><style>.edge>path:hover{stroke-width:8}</style>
<path fill="none" stroke="black" d="M354.14,-143.87C338.45,-119.11 309.32,-73.14 291.11,-44.42"/>
<polygon fill="#4089c0" stroke="black" points="293.92,-42.32 285.62,-35.75 288.01,-46.07 293.92,-42.32"/>
</g>
<!-- webdrivermanager&#45;&gt;kot_crawl -->
<g id="edge20" class="edge">
<title>webdrivermanager&#45;&gt;kot_crawl</title><style>.edge>path:hover{stroke-width:8}</style>
<path fill="none" stroke="black" d="M399,-305C393.46,-278.38 367.95,-260.17 345.5,-249.01"/>
<polygon fill="#602fdb" stroke="black" points="346.67,-245.7 336.13,-244.66 343.72,-252.05 346.67,-245.7"/>
<path fill="none" stroke="black" d="M362.62,-359.96C383.47,-348.07 403.83,-330.18 399,-307"/>
</g>
<!-- yaml -->
<g id="node14" class="node">
<title>yaml</title><style>.edge>path:hover{stroke-width:8}</style>
<polygon fill="#b653a8" stroke="black" points="211,-468 208,-472 187,-472 184,-468 157,-468 157,-432 211,-432 211,-468"/>
<text text-anchor="middle" x="184" y="-447.5" font-family="Helvetica,sans-Serif" font-size="10.00" fill="#ffffff">yaml</text>
</g>
<!-- yaml&#45;&gt;kot_config -->
<g id="edge21" class="edge">
<title>yaml&#45;&gt;kot_config</title><style>.edge>path:hover{stroke-width:8}</style>
<path fill="none" stroke="black" d="M184,-431.87C184,-407.67 184,-363.21 184,-334.39"/>
<polygon fill="#b653a8" stroke="black" points="187.5,-334.19 184,-324.19 180.5,-334.19 187.5,-334.19"/>
</g>
</g>
</svg>
